<?xml version="1.0" encoding="utf-8" standalone="no"?>
<!DOCTYPE svg PUBLIC "-//W3C//DTD SVG 1.1//EN"
  "http://www.w3.org/Graphics/SVG/1.1/DTD/svg11.dtd">
<svg xmlns:xlink="http://www.w3.org/1999/xlink" width="460.8pt" height="345.6pt" viewBox="0 0 460.8 345.6" xmlns="http://www.w3.org/2000/svg" version="1.1">
 <metadata>
  <rdf:RDF xmlns:dc="http://purl.org/dc/elements/1.1/" xmlns:cc="http://creativecommons.org/ns#" xmlns:rdf="http://www.w3.org/1999/02/22-rdf-syntax-ns#">
   <cc:Work>
    <dc:type rdf:resource="http://purl.org/dc/dcmitype/StillImage"/>
    <dc:date>2023-02-21T16:59:05.067835</dc:date>
    <dc:format>image/svg+xml</dc:format>
    <dc:creator>
     <cc:Agent>
      <dc:title>Matplotlib v3.7.0, https://matplotlib.org/</dc:title>
     </cc:Agent>
    </dc:creator>
   </cc:Work>
  </rdf:RDF>
 </metadata>
 <defs>
  <style type="text/css">*{stroke-linejoin: round; stroke-linecap: butt}</style>
 </defs>
 <g id="figure_1">
  <g id="patch_1">
   <path d="M 0 345.6 
L 460.8 345.6 
L 460.8 0 
L 0 0 
z
" style="fill: #ffffff"/>
  </g>
  <g id="axes_1">
   <g id="patch_2">
    <path d="M 57.6 307.584 
L 414.72 307.584 
L 414.72 41.472 
L 57.6 41.472 
z
" style="fill: #ffffff"/>
   </g>
   <g id="PathCollection_1">
    <defs>
     <path id="m71192ed7a5" d="M -3 3 
L 3 -3 
M -3 -3 
L 3 3 
" style="stroke: #000000; stroke-opacity: 0.8; stroke-width: 1.5"/>
    </defs>
    <g clip-path="url(#pc79339cb65)">
     <use xlink:href="#m71192ed7a5" x="73.832727" y="277.202186" style="fill-opacity: 0.8; stroke: #000000; stroke-opacity: 0.8; stroke-width: 1.5"/>
     <use xlink:href="#m71192ed7a5" x="114.414545" y="242.089072" style="fill-opacity: 0.8; stroke: #000000; stroke-opacity: 0.8; stroke-width: 1.5"/>
     <use xlink:href="#m71192ed7a5" x="154.996364" y="237.526983" style="fill-opacity: 0.8; stroke: #000000; stroke-opacity: 0.8; stroke-width: 1.5"/>
     <use xlink:href="#m71192ed7a5" x="195.578182" y="199.619364" style="fill-opacity: 0.8; stroke: #000000; stroke-opacity: 0.8; stroke-width: 1.5"/>
     <use xlink:href="#m71192ed7a5" x="236.16" y="173.373807" style="fill-opacity: 0.8; stroke: #000000; stroke-opacity: 0.8; stroke-width: 1.5"/>
     <use xlink:href="#m71192ed7a5" x="276.741818" y="141.435922" style="fill-opacity: 0.8; stroke: #000000; stroke-opacity: 0.8; stroke-width: 1.5"/>
     <use xlink:href="#m71192ed7a5" x="317.323636" y="114.849419" style="fill-opacity: 0.8; stroke: #000000; stroke-opacity: 0.8; stroke-width: 1.5"/>
     <use xlink:href="#m71192ed7a5" x="357.905455" y="87.191539" style="fill-opacity: 0.8; stroke: #000000; stroke-opacity: 0.8; stroke-width: 1.5"/>
     <use xlink:href="#m71192ed7a5" x="398.487273" y="53.568" style="fill-opacity: 0.8; stroke: #000000; stroke-opacity: 0.8; stroke-width: 1.5"/>
    </g>
   </g>
   <g id="PolyCollection_1">
    <path d="M 73.832727 271.698281 
L 73.832727 295.488 
L 77.112066 293.03734 
L 80.391405 290.586679 
L 83.670744 288.136019 
L 86.950083 285.685358 
L 90.229421 283.234698 
L 93.50876 280.784037 
L 96.788099 278.333377 
L 100.067438 275.882717 
L 103.346777 273.432056 
L 106.626116 270.979778 
L 109.905455 268.526899 
L 113.184793 266.074176 
L 116.464132 263.623158 
L 119.743471 261.172141 
L 123.02281 258.721123 
L 126.302149 256.270325 
L 129.581488 253.819723 
L 132.860826 251.369121 
L 136.140165 248.917819 
L 139.419504 246.466265 
L 142.698843 244.015016 
L 145.978182 241.563998 
L 149.257521 239.112981 
L 152.53686 236.661963 
L 155.816198 234.210945 
L 159.095537 231.759927 
L 162.374876 229.308909 
L 165.654215 226.858316 
L 168.933554 224.408009 
L 172.212893 221.969295 
L 175.492231 219.532874 
L 178.77157 217.105903 
L 182.050909 214.686618 
L 185.330248 212.265789 
L 188.609587 209.844769 
L 191.888926 207.428764 
L 195.168264 205.009498 
L 198.447603 202.590984 
L 201.726942 200.17247 
L 205.006281 197.791408 
L 208.28562 195.420253 
L 211.564959 192.985526 
L 214.844298 190.549258 
L 218.123636 188.116935 
L 221.402975 185.691514 
L 224.682314 183.269593 
L 227.961653 180.889416 
L 231.240992 178.440335 
L 234.520331 176.041631 
L 237.799669 173.589234 
L 241.079008 171.15491 
L 244.358347 168.733863 
L 247.637686 166.405372 
L 250.917025 164.037311 
L 254.196364 161.730907 
L 257.475702 159.384707 
L 260.755041 157.042138 
L 264.03438 154.674504 
L 267.313719 152.36327 
L 270.593058 150.032121 
L 273.872397 147.774732 
L 277.151736 145.537091 
L 280.431074 143.389689 
L 283.710413 141.242276 
L 286.989752 139.062848 
L 290.269091 136.917639 
L 293.54843 134.760816 
L 296.827769 132.564449 
L 300.107107 130.356935 
L 303.386446 128.199767 
L 306.665785 126.084257 
L 309.945124 124.010302 
L 313.224463 121.887332 
L 316.503802 119.717729 
L 319.78314 117.548125 
L 323.062479 115.378324 
L 326.341818 113.250862 
L 329.621157 111.141074 
L 332.900496 109.031909 
L 336.179835 106.901893 
L 339.459174 104.756282 
L 342.738512 102.657423 
L 346.017851 100.523638 
L 349.29719 98.383545 
L 352.576529 96.243451 
L 355.855868 94.103357 
L 359.135207 91.963264 
L 362.414545 89.82317 
L 365.693884 87.683077 
L 368.973223 85.542983 
L 372.252562 83.426762 
L 375.531901 81.30996 
L 378.81124 79.193157 
L 382.090579 77.064804 
L 385.369917 74.960265 
L 388.649256 72.729986 
L 391.928595 70.554032 
L 395.207934 68.413813 
L 398.487273 66.273594 
L 398.487273 53.829269 
L 398.487273 53.829269 
L 395.207934 56.265153 
L 391.928595 58.652848 
L 388.649256 61.013476 
L 385.369917 63.424331 
L 382.090579 65.794789 
L 378.81124 68.220438 
L 375.531901 70.619921 
L 372.252562 72.997446 
L 368.973223 75.381153 
L 365.693884 77.766841 
L 362.414545 80.124555 
L 359.135207 82.414176 
L 355.855868 84.72535 
L 352.576529 87.136341 
L 349.29719 89.4669 
L 346.017851 91.680375 
L 342.738512 93.95911 
L 339.459174 96.203568 
L 336.179835 98.44887 
L 332.900496 100.68236 
L 329.621157 102.920019 
L 326.341818 105.127863 
L 323.062479 107.369352 
L 319.78314 109.632791 
L 316.503802 111.879567 
L 313.224463 114.026033 
L 309.945124 116.193856 
L 306.665785 118.416966 
L 303.386446 120.627664 
L 300.107107 122.826798 
L 296.827769 125.000766 
L 293.54843 127.208405 
L 290.269091 129.449158 
L 286.989752 131.632147 
L 283.710413 133.870291 
L 280.431074 136.067561 
L 277.151736 138.249951 
L 273.872397 140.457318 
L 270.593058 142.664686 
L 267.313719 144.83958 
L 264.03438 147.005346 
L 260.755041 149.171112 
L 257.475702 151.336878 
L 254.196364 153.502643 
L 250.917025 155.673598 
L 247.637686 157.85671 
L 244.358347 160.030192 
L 241.079008 162.259705 
L 237.799669 164.501539 
L 234.520331 166.710601 
L 231.240992 168.806218 
L 227.961653 170.955485 
L 224.682314 173.151739 
L 221.402975 175.317113 
L 218.123636 177.458242 
L 214.844298 179.640342 
L 211.564959 181.840393 
L 208.28562 184.073563 
L 205.006281 186.306927 
L 201.726942 188.477625 
L 198.447603 190.635342 
L 195.168264 192.792318 
L 191.888926 194.948418 
L 188.609587 197.105678 
L 185.330248 199.262289 
L 182.050909 201.419919 
L 178.77157 203.569003 
L 175.492231 205.709173 
L 172.212893 207.834794 
L 168.933554 209.991097 
L 165.654215 212.129924 
L 162.374876 214.27111 
L 159.095537 216.413487 
L 155.816198 218.563056 
L 152.53686 220.695444 
L 149.257521 222.836811 
L 145.978182 224.999161 
L 142.698843 227.141432 
L 139.419504 229.293218 
L 136.140165 231.494766 
L 132.860826 233.699695 
L 129.581488 235.817737 
L 126.302149 237.922722 
L 123.02281 240.059957 
L 119.743471 242.17865 
L 116.464132 244.29759 
L 113.184793 246.417196 
L 109.905455 248.536802 
L 106.626116 250.656042 
L 103.346777 252.773893 
L 100.067438 254.856183 
L 96.788099 256.958351 
L 93.50876 259.125243 
L 90.229421 261.25046 
L 86.950083 263.311107 
L 83.670744 265.384758 
L 80.391405 267.519142 
L 77.112066 269.618853 
L 73.832727 271.698281 
z
" clip-path="url(#pc79339cb65)" style="fill: #ff0000; fill-opacity: 0.15"/>
   </g>
   <g id="matplotlib.axis_1">
    <g id="xtick_1">
     <g id="line2d_1">
      <defs>
       <path id="m2df6eaa931" d="M 0 0 
L 0 3.5 
" style="stroke: #000000; stroke-width: 0.8"/>
      </defs>
      <g>
       <use xlink:href="#m2df6eaa931" x="73.832727" y="307.584" style="stroke: #000000; stroke-width: 0.8"/>
      </g>
     </g>
     <g id="text_1">
      <!-- $\mathdefault{10}$ -->
      <g transform="translate(69.598544 320.118802) scale(0.08 -0.08)">
       <defs>
        <path id="CMR17-31" d="M 1702 4058 
C 1702 4192 1696 4192 1606 4192 
C 1357 3916 979 3827 621 3827 
C 602 3827 570 3827 563 3808 
C 557 3795 557 3782 557 3648 
C 755 3648 1088 3686 1344 3839 
L 1344 461 
C 1344 236 1331 160 781 160 
L 589 160 
L 589 0 
C 896 0 1216 0 1523 0 
C 1830 0 2150 0 2458 0 
L 2458 160 
L 2266 160 
C 1715 160 1702 230 1702 458 
L 1702 4058 
z
" transform="scale(0.015625)"/>
        <path id="CMR17-30" d="M 2688 2025 
C 2688 2416 2682 3080 2413 3591 
C 2176 4039 1798 4198 1466 4198 
C 1158 4198 768 4058 525 3597 
C 269 3118 243 2524 243 2025 
C 243 1661 250 1106 448 619 
C 723 -39 1216 -128 1466 -128 
C 1760 -128 2208 -7 2470 600 
C 2662 1042 2688 1559 2688 2025 
z
M 1466 -26 
C 1056 -26 813 325 723 812 
C 653 1188 653 1738 653 2096 
C 653 2588 653 2997 736 3387 
C 858 3929 1216 4096 1466 4096 
C 1728 4096 2067 3923 2189 3400 
C 2272 3036 2278 2607 2278 2096 
C 2278 1680 2278 1169 2202 792 
C 2067 95 1690 -26 1466 -26 
z
" transform="scale(0.015625)"/>
       </defs>
       <use xlink:href="#CMR17-31" transform="scale(0.996264)"/>
       <use xlink:href="#CMR17-30" transform="translate(45.690477 0) scale(0.996264)"/>
      </g>
     </g>
    </g>
    <g id="xtick_2">
     <g id="line2d_2">
      <g>
       <use xlink:href="#m2df6eaa931" x="114.414545" y="307.584" style="stroke: #000000; stroke-width: 0.8"/>
      </g>
     </g>
     <g id="text_2">
      <!-- $\mathdefault{20}$ -->
      <g transform="translate(110.180363 320.118802) scale(0.08 -0.08)">
       <defs>
        <path id="CMR17-32" d="M 2669 989 
L 2554 989 
C 2490 536 2438 459 2413 420 
C 2381 369 1920 369 1830 369 
L 602 369 
C 832 619 1280 1072 1824 1597 
C 2214 1967 2669 2402 2669 3035 
C 2669 3790 2067 4224 1395 4224 
C 691 4224 262 3604 262 3030 
C 262 2780 448 2748 525 2748 
C 589 2748 781 2787 781 3010 
C 781 3207 614 3264 525 3264 
C 486 3264 448 3258 422 3245 
C 544 3790 915 4058 1306 4058 
C 1862 4058 2227 3617 2227 3035 
C 2227 2479 1901 2000 1536 1584 
L 262 146 
L 262 0 
L 2515 0 
L 2669 989 
z
" transform="scale(0.015625)"/>
       </defs>
       <use xlink:href="#CMR17-32" transform="scale(0.996264)"/>
       <use xlink:href="#CMR17-30" transform="translate(45.690477 0) scale(0.996264)"/>
      </g>
     </g>
    </g>
    <g id="xtick_3">
     <g id="line2d_3">
      <g>
       <use xlink:href="#m2df6eaa931" x="154.996364" y="307.584" style="stroke: #000000; stroke-width: 0.8"/>
      </g>
     </g>
     <g id="text_3">
      <!-- $\mathdefault{30}$ -->
      <g transform="translate(150.762181 320.118802) scale(0.08 -0.08)">
       <defs>
        <path id="CMR17-33" d="M 1414 2157 
C 1984 2157 2234 1662 2234 1090 
C 2234 320 1824 25 1453 25 
C 1114 25 563 194 390 693 
C 422 680 454 680 486 680 
C 640 680 755 782 755 948 
C 755 1133 614 1216 486 1216 
C 378 1216 211 1165 211 926 
C 211 335 787 -128 1466 -128 
C 2176 -128 2720 430 2720 1085 
C 2720 1707 2208 2157 1600 2227 
C 2086 2328 2554 2756 2554 3329 
C 2554 3820 2048 4179 1472 4179 
C 890 4179 378 3829 378 3329 
C 378 3110 544 3072 627 3072 
C 762 3072 877 3155 877 3321 
C 877 3486 762 3569 627 3569 
C 602 3569 570 3569 544 3557 
C 730 3959 1235 4032 1459 4032 
C 1683 4032 2106 3925 2106 3320 
C 2106 3143 2080 2828 1862 2550 
C 1670 2304 1453 2304 1242 2284 
C 1210 2284 1062 2269 1037 2269 
C 992 2263 966 2257 966 2208 
C 966 2163 973 2157 1101 2157 
L 1414 2157 
z
" transform="scale(0.015625)"/>
       </defs>
       <use xlink:href="#CMR17-33" transform="scale(0.996264)"/>
       <use xlink:href="#CMR17-30" transform="translate(45.690477 0) scale(0.996264)"/>
      </g>
     </g>
    </g>
    <g id="xtick_4">
     <g id="line2d_4">
      <g>
       <use xlink:href="#m2df6eaa931" x="195.578182" y="307.584" style="stroke: #000000; stroke-width: 0.8"/>
      </g>
     </g>
     <g id="text_4">
      <!-- $\mathdefault{40}$ -->
      <g transform="translate(191.343999 320.118802) scale(0.08 -0.08)">
       <defs>
        <path id="CMR17-34" d="M 2150 4122 
C 2150 4256 2144 4256 2029 4256 
L 128 1254 
L 128 1088 
L 1779 1088 
L 1779 457 
C 1779 224 1766 160 1318 160 
L 1197 160 
L 1197 0 
C 1402 0 1747 0 1965 0 
C 2182 0 2528 0 2733 0 
L 2733 160 
L 2611 160 
C 2163 160 2150 224 2150 457 
L 2150 1088 
L 2803 1088 
L 2803 1254 
L 2150 1254 
L 2150 4122 
z
M 1798 3703 
L 1798 1254 
L 256 1254 
L 1798 3703 
z
" transform="scale(0.015625)"/>
       </defs>
       <use xlink:href="#CMR17-34" transform="scale(0.996264)"/>
       <use xlink:href="#CMR17-30" transform="translate(45.690477 0) scale(0.996264)"/>
      </g>
     </g>
    </g>
    <g id="xtick_5">
     <g id="line2d_5">
      <g>
       <use xlink:href="#m2df6eaa931" x="236.16" y="307.584" style="stroke: #000000; stroke-width: 0.8"/>
      </g>
     </g>
     <g id="text_5">
      <!-- $\mathdefault{50}$ -->
      <g transform="translate(231.925817 320.118802) scale(0.08 -0.08)">
       <defs>
        <path id="CMR17-35" d="M 730 3692 
C 794 3666 1056 3584 1325 3584 
C 1920 3584 2246 3911 2432 4100 
C 2432 4157 2432 4192 2394 4192 
C 2387 4192 2374 4192 2323 4163 
C 2099 4058 1837 3973 1517 3973 
C 1325 3973 1037 3999 723 4139 
C 653 4171 640 4171 634 4171 
C 602 4171 595 4164 595 4037 
L 595 2203 
C 595 2089 595 2057 659 2057 
C 691 2057 704 2070 736 2114 
C 941 2401 1222 2522 1542 2522 
C 1766 2522 2246 2382 2246 1289 
C 2246 1085 2246 715 2054 421 
C 1894 159 1645 25 1370 25 
C 947 25 518 320 403 814 
C 429 807 480 795 506 795 
C 589 795 749 840 749 1038 
C 749 1210 627 1280 506 1280 
C 358 1280 262 1190 262 1011 
C 262 454 704 -128 1382 -128 
C 2042 -128 2669 440 2669 1264 
C 2669 2030 2170 2624 1549 2624 
C 1222 2624 947 2503 730 2274 
L 730 3692 
z
" transform="scale(0.015625)"/>
       </defs>
       <use xlink:href="#CMR17-35" transform="scale(0.996264)"/>
       <use xlink:href="#CMR17-30" transform="translate(45.690477 0) scale(0.996264)"/>
      </g>
     </g>
    </g>
    <g id="xtick_6">
     <g id="line2d_6">
      <g>
       <use xlink:href="#m2df6eaa931" x="276.741818" y="307.584" style="stroke: #000000; stroke-width: 0.8"/>
      </g>
     </g>
     <g id="text_6">
      <!-- $\mathdefault{60}$ -->
      <g transform="translate(272.507635 320.118802) scale(0.08 -0.08)">
       <defs>
        <path id="CMR17-36" d="M 678 2176 
C 678 3690 1395 4032 1811 4032 
C 1946 4032 2272 4009 2400 3776 
C 2298 3776 2106 3776 2106 3553 
C 2106 3381 2246 3323 2336 3323 
C 2394 3323 2566 3348 2566 3560 
C 2566 3954 2246 4179 1805 4179 
C 1043 4179 243 3390 243 1984 
C 243 253 966 -128 1478 -128 
C 2099 -128 2688 427 2688 1283 
C 2688 2081 2170 2662 1517 2662 
C 1126 2662 838 2407 678 1960 
L 678 2176 
z
M 1478 25 
C 691 25 691 1200 691 1436 
C 691 1896 909 2560 1504 2560 
C 1613 2560 1926 2560 2138 2120 
C 2253 1870 2253 1609 2253 1289 
C 2253 944 2253 690 2118 434 
C 1978 171 1773 25 1478 25 
z
" transform="scale(0.015625)"/>
       </defs>
       <use xlink:href="#CMR17-36" transform="scale(0.996264)"/>
       <use xlink:href="#CMR17-30" transform="translate(45.690477 0) scale(0.996264)"/>
      </g>
     </g>
    </g>
    <g id="xtick_7">
     <g id="line2d_7">
      <g>
       <use xlink:href="#m2df6eaa931" x="317.323636" y="307.584" style="stroke: #000000; stroke-width: 0.8"/>
      </g>
     </g>
     <g id="text_7">
      <!-- $\mathdefault{70}$ -->
      <g transform="translate(313.089454 320.118802) scale(0.08 -0.08)">
       <defs>
        <path id="CMR17-37" d="M 2886 3941 
L 2886 4081 
L 1382 4081 
C 634 4081 621 4165 595 4288 
L 480 4288 
L 294 3094 
L 410 3094 
C 429 3215 474 3540 550 3661 
C 589 3712 1062 3712 1171 3712 
L 2579 3712 
L 1869 2661 
C 1395 1954 1069 999 1069 165 
C 1069 89 1069 -128 1299 -128 
C 1530 -128 1530 89 1530 171 
L 1530 465 
C 1530 1508 1709 2196 2003 2636 
L 2886 3941 
z
" transform="scale(0.015625)"/>
       </defs>
       <use xlink:href="#CMR17-37" transform="scale(0.996264)"/>
       <use xlink:href="#CMR17-30" transform="translate(45.690477 0) scale(0.996264)"/>
      </g>
     </g>
    </g>
    <g id="xtick_8">
     <g id="line2d_8">
      <g>
       <use xlink:href="#m2df6eaa931" x="357.905455" y="307.584" style="stroke: #000000; stroke-width: 0.8"/>
      </g>
     </g>
     <g id="text_8">
      <!-- $\mathdefault{80}$ -->
      <g transform="translate(353.671272 320.118802) scale(0.08 -0.08)">
       <defs>
        <path id="CMR17-38" d="M 1741 2264 
C 2144 2467 2554 2773 2554 3263 
C 2554 3841 1990 4179 1472 4179 
C 890 4179 378 3759 378 3180 
C 378 3021 416 2747 666 2505 
C 730 2442 998 2251 1171 2130 
C 883 1983 211 1634 211 934 
C 211 279 838 -128 1459 -128 
C 2144 -128 2720 362 2720 1010 
C 2720 1590 2330 1857 2074 2029 
L 1741 2264 
z
M 902 2822 
C 851 2854 595 3051 595 3351 
C 595 3739 998 4032 1459 4032 
C 1965 4032 2336 3676 2336 3262 
C 2336 2669 1670 2331 1638 2331 
C 1632 2331 1626 2331 1574 2370 
L 902 2822 
z
M 2080 1519 
C 2176 1449 2483 1240 2483 851 
C 2483 381 2010 25 1472 25 
C 890 25 448 438 448 940 
C 448 1443 838 1862 1280 2060 
L 2080 1519 
z
" transform="scale(0.015625)"/>
       </defs>
       <use xlink:href="#CMR17-38" transform="scale(0.996264)"/>
       <use xlink:href="#CMR17-30" transform="translate(45.690477 0) scale(0.996264)"/>
      </g>
     </g>
    </g>
    <g id="xtick_9">
     <g id="line2d_9">
      <g>
       <use xlink:href="#m2df6eaa931" x="398.487273" y="307.584" style="stroke: #000000; stroke-width: 0.8"/>
      </g>
     </g>
     <g id="text_9">
      <!-- $\mathdefault{90}$ -->
      <g transform="translate(394.25309 320.118802) scale(0.08 -0.08)">
       <defs>
        <path id="CMR17-39" d="M 2253 1864 
C 2253 464 1670 31 1190 31 
C 1043 31 685 31 538 294 
C 704 268 826 357 826 518 
C 826 692 685 749 595 749 
C 538 749 365 723 365 506 
C 365 71 742 -128 1203 -128 
C 1939 -128 2688 674 2688 2073 
C 2688 3817 1971 4179 1485 4179 
C 851 4179 243 3628 243 2778 
C 243 1991 762 1408 1414 1408 
C 1952 1408 2189 1903 2253 2112 
L 2253 1864 
z
M 1427 1510 
C 1254 1510 1011 1542 813 1922 
C 678 2169 678 2461 678 2771 
C 678 3146 678 3405 858 3684 
C 947 3817 1114 4032 1485 4032 
C 2240 4032 2240 2885 2240 2632 
C 2240 2182 2035 1510 1427 1510 
z
" transform="scale(0.015625)"/>
       </defs>
       <use xlink:href="#CMR17-39" transform="scale(0.996264)"/>
       <use xlink:href="#CMR17-30" transform="translate(45.690477 0) scale(0.996264)"/>
      </g>
     </g>
    </g>
    <g id="text_10">
     <!-- $x$ -->
     <g transform="translate(233.313041 332.587046) scale(0.1 -0.1)">
      <defs>
       <path id="CMMI12-78" d="M 3034 2606 
C 2829 2567 2752 2414 2752 2293 
C 2752 2139 2874 2088 2963 2088 
C 3155 2088 3290 2254 3290 2427 
C 3290 2695 2982 2816 2714 2816 
C 2323 2816 2106 2433 2048 2312 
C 1901 2816 1504 2816 1389 2816 
C 736 2816 390 1980 390 1839 
C 390 1814 416 1782 461 1782 
C 512 1782 525 1820 538 1846 
C 755 2555 1184 2689 1370 2689 
C 1658 2689 1715 2420 1715 2267 
C 1715 2127 1677 1980 1600 1673 
L 1382 798 
C 1286 415 1101 64 762 64 
C 730 64 570 64 435 147 
C 666 192 717 383 717 460 
C 717 588 621 664 499 664 
C 346 664 179 530 179 326 
C 179 57 480 -64 755 -64 
C 1062 -64 1280 179 1414 441 
C 1517 64 1837 -64 2074 -64 
C 2726 -64 3072 773 3072 913 
C 3072 945 3046 971 3008 971 
C 2950 971 2944 939 2925 888 
C 2752 326 2381 64 2093 64 
C 1869 64 1747 230 1747 492 
C 1747 632 1773 734 1875 1156 
L 2099 2024 
C 2195 2408 2413 2689 2707 2689 
C 2720 2689 2899 2689 3034 2606 
z
" transform="scale(0.015625)"/>
      </defs>
      <use xlink:href="#CMMI12-78" transform="scale(0.996264)"/>
     </g>
    </g>
   </g>
   <g id="matplotlib.axis_2">
    <g id="ytick_1">
     <g id="line2d_10">
      <defs>
       <path id="m9e0e0cf91d" d="M 0 0 
L -3.5 0 
" style="stroke: #000000; stroke-width: 0.8"/>
      </defs>
      <g>
       <use xlink:href="#m9e0e0cf91d" x="57.6" y="307.030527" style="stroke: #000000; stroke-width: 0.8"/>
      </g>
     </g>
     <g id="text_11">
      <!-- $\mathdefault{3}$ -->
      <g transform="translate(46.365817 309.797927) scale(0.08 -0.08)">
       <use xlink:href="#CMR17-33" transform="scale(0.996264)"/>
      </g>
     </g>
    </g>
    <g id="ytick_2">
     <g id="line2d_11">
      <g>
       <use xlink:href="#m9e0e0cf91d" x="57.6" y="263.730729" style="stroke: #000000; stroke-width: 0.8"/>
      </g>
     </g>
     <g id="text_12">
      <!-- $\mathdefault{4}$ -->
      <g transform="translate(46.365817 266.49813) scale(0.08 -0.08)">
       <use xlink:href="#CMR17-34" transform="scale(0.996264)"/>
      </g>
     </g>
    </g>
    <g id="ytick_3">
     <g id="line2d_12">
      <g>
       <use xlink:href="#m9e0e0cf91d" x="57.6" y="220.430932" style="stroke: #000000; stroke-width: 0.8"/>
      </g>
     </g>
     <g id="text_13">
      <!-- $\mathdefault{5}$ -->
      <g transform="translate(46.365817 223.198333) scale(0.08 -0.08)">
       <use xlink:href="#CMR17-35" transform="scale(0.996264)"/>
      </g>
     </g>
    </g>
    <g id="ytick_4">
     <g id="line2d_13">
      <g>
       <use xlink:href="#m9e0e0cf91d" x="57.6" y="177.131135" style="stroke: #000000; stroke-width: 0.8"/>
      </g>
     </g>
     <g id="text_14">
      <!-- $\mathdefault{6}$ -->
      <g transform="translate(46.365817 179.898535) scale(0.08 -0.08)">
       <use xlink:href="#CMR17-36" transform="scale(0.996264)"/>
      </g>
     </g>
    </g>
    <g id="ytick_5">
     <g id="line2d_14">
      <g>
       <use xlink:href="#m9e0e0cf91d" x="57.6" y="133.831337" style="stroke: #000000; stroke-width: 0.8"/>
      </g>
     </g>
     <g id="text_15">
      <!-- $\mathdefault{7}$ -->
      <g transform="translate(46.365817 136.598738) scale(0.08 -0.08)">
       <use xlink:href="#CMR17-37" transform="scale(0.996264)"/>
      </g>
     </g>
    </g>
    <g id="ytick_6">
     <g id="line2d_15">
      <g>
       <use xlink:href="#m9e0e0cf91d" x="57.6" y="90.53154" style="stroke: #000000; stroke-width: 0.8"/>
      </g>
     </g>
     <g id="text_16">
      <!-- $\mathdefault{8}$ -->
      <g transform="translate(46.365817 93.298941) scale(0.08 -0.08)">
       <use xlink:href="#CMR17-38" transform="scale(0.996264)"/>
      </g>
     </g>
    </g>
    <g id="ytick_7">
     <g id="line2d_16">
      <g>
       <use xlink:href="#m9e0e0cf91d" x="57.6" y="47.231743" style="stroke: #000000; stroke-width: 0.8"/>
      </g>
     </g>
     <g id="text_17">
      <!-- $\mathdefault{9}$ -->
      <g transform="translate(46.365817 49.999144) scale(0.08 -0.08)">
       <use xlink:href="#CMR17-39" transform="scale(0.996264)"/>
      </g>
     </g>
    </g>
    <g id="text_18">
     <!-- $y$ -->
     <g transform="translate(40.428639 176.97025) rotate(-90) scale(0.1 -0.1)">
      <defs>
       <path id="CMMI12-79" d="M 1683 -700 
C 1510 -939 1261 -1152 947 -1152 
C 870 -1152 563 -1152 467 -889 
C 486 -895 518 -895 531 -895 
C 723 -895 851 -729 851 -582 
C 851 -435 730 -384 634 -384 
C 531 -384 307 -458 307 -759 
C 307 -1071 582 -1286 947 -1286 
C 1587 -1286 2234 -700 2413 6 
L 3040 2485 
C 3046 2517 3059 2556 3059 2594 
C 3059 2689 2982 2753 2886 2753 
C 2829 2753 2694 2727 2643 2535 
L 2170 658 
C 2138 543 2138 530 2086 460 
C 1958 281 1747 64 1440 64 
C 1082 64 1050 415 1050 588 
C 1050 952 1222 1443 1395 1903 
C 1466 2088 1504 2178 1504 2305 
C 1504 2574 1312 2816 998 2816 
C 410 2816 173 1890 173 1839 
C 173 1814 198 1782 243 1782 
C 301 1782 307 1807 333 1897 
C 486 2433 730 2689 979 2689 
C 1037 2689 1146 2689 1146 2478 
C 1146 2312 1075 2127 979 1884 
C 666 1047 666 837 666 683 
C 666 77 1101 -64 1421 -64 
C 1606 -64 1837 -6 2061 230 
L 2067 224 
C 1971 -147 1907 -392 1683 -700 
z
" transform="scale(0.015625)"/>
      </defs>
      <use xlink:href="#CMMI12-79" transform="scale(0.996264)"/>
     </g>
    </g>
   </g>
   <g id="line2d_17">
    <path d="M 73.832727 280.501893 
L 77.112066 278.262475 
L 80.391405 276.023057 
L 83.670744 273.783639 
L 86.950083 271.544221 
L 90.229421 269.304803 
L 93.50876 267.065385 
L 96.788099 264.825967 
L 100.067438 262.586549 
L 103.346777 260.34713 
L 106.626116 258.107712 
L 109.905455 255.868294 
L 113.184793 253.628876 
L 116.464132 251.389458 
L 119.743471 249.15004 
L 123.02281 246.910622 
L 126.302149 244.671204 
L 129.581488 242.431786 
L 132.860826 240.192368 
L 136.140165 237.95295 
L 139.419504 235.713532 
L 142.698843 233.474114 
L 145.978182 231.234696 
L 149.257521 228.995278 
L 152.53686 226.75586 
L 155.816198 224.516442 
L 159.095537 222.277023 
L 162.374876 220.037605 
L 165.654215 217.798187 
L 168.933554 215.558769 
L 172.212893 213.319351 
L 175.492231 211.079933 
L 178.77157 208.840515 
L 182.050909 206.601097 
L 185.330248 204.361679 
L 188.609587 202.122261 
L 191.888926 199.882843 
L 195.168264 197.643425 
L 198.447603 195.404007 
L 201.726942 193.164589 
L 205.006281 190.925171 
L 208.28562 188.685753 
L 211.564959 186.446334 
L 214.844298 184.206916 
L 218.123636 181.967498 
L 221.402975 179.72808 
L 224.682314 177.488662 
L 227.961653 175.249244 
L 231.240992 173.009826 
L 234.520331 170.770408 
L 237.799669 168.53099 
L 241.079008 166.291572 
L 244.358347 164.052154 
L 247.637686 161.812736 
L 250.917025 159.573318 
L 254.196364 157.3339 
L 257.475702 155.094482 
L 260.755041 152.855064 
L 264.03438 150.615646 
L 267.313719 148.376227 
L 270.593058 146.136809 
L 273.872397 143.897391 
L 277.151736 141.657973 
L 280.431074 139.418555 
L 283.710413 137.179137 
L 286.989752 134.939719 
L 290.269091 132.700301 
L 293.54843 130.460883 
L 296.827769 128.221465 
L 300.107107 125.982047 
L 303.386446 123.742629 
L 306.665785 121.503211 
L 309.945124 119.263793 
L 313.224463 117.024375 
L 316.503802 114.784957 
L 319.78314 112.545538 
L 323.062479 110.30612 
L 326.341818 108.066702 
L 329.621157 105.827284 
L 332.900496 103.587866 
L 336.179835 101.348448 
L 339.459174 99.10903 
L 342.738512 96.869612 
L 346.017851 94.630194 
L 349.29719 92.390776 
L 352.576529 90.151358 
L 355.855868 87.91194 
L 359.135207 85.672522 
L 362.414545 83.433104 
L 365.693884 81.193686 
L 368.973223 78.954268 
L 372.252562 76.714849 
L 375.531901 74.475431 
L 378.81124 72.236013 
L 382.090579 69.996595 
L 385.369917 67.757177 
L 388.649256 65.517759 
L 391.928595 63.278341 
L 395.207934 61.038923 
L 398.487273 58.799505 
" clip-path="url(#pc79339cb65)" style="fill: none; stroke: #ff0000; stroke-width: 2.25; stroke-linecap: square"/>
   </g>
   <g id="patch_3">
    <path d="M 57.6 307.584 
L 57.6 41.472 
" style="fill: none; stroke: #000000; stroke-width: 0.8; stroke-linejoin: miter; stroke-linecap: square"/>
   </g>
   <g id="patch_4">
    <path d="M 414.72 307.584 
L 414.72 41.472 
" style="fill: none; stroke: #000000; stroke-width: 0.8; stroke-linejoin: miter; stroke-linecap: square"/>
   </g>
   <g id="patch_5">
    <path d="M 57.6 307.584 
L 414.72 307.584 
" style="fill: none; stroke: #000000; stroke-width: 0.8; stroke-linejoin: miter; stroke-linecap: square"/>
   </g>
   <g id="patch_6">
    <path d="M 57.6 41.472 
L 414.72 41.472 
" style="fill: none; stroke: #000000; stroke-width: 0.8; stroke-linejoin: miter; stroke-linecap: square"/>
   </g>
  </g>
 </g>
 <defs>
  <clipPath id="pc79339cb65">
   <rect x="57.6" y="41.472" width="357.12" height="266.112"/>
  </clipPath>
 </defs>
</svg>
